<?xml version="1.0" encoding="utf-8"?>
<!-- Generator: Adobe Illustrator 23.0.0, SVG Export Plug-In . SVG Version: 6.00 Build 0)  -->
<svg version="1.1" id="Camada_1" xmlns="http://www.w3.org/2000/svg" xmlns:xlink="http://www.w3.org/1999/xlink" x="0px" y="0px"
	 viewBox="0 0 1080 697" style="enable-background:new 0 0 1080 697;" xml:space="preserve">
<style type="text/css">
	.st0{fill:#00A5D3;}
	.st1{fill:#9ED2F1;}
	.st2{fill:#231F20;}
</style>
<g>
	<path class="st0" d="M326.35,355.75c37.21-20.6,171.42-51.1,171.42-51.1s54.53-28.58,189.68,30.5
		c10.68,4.67,23.42-122.24,23.42-122.24s-51.52-68.38-204.75,66.74c-19.09,16.83-89.38-42.85-101.09-36.3
		C373.85,260.81,307.87,365.99,326.35,355.75z"/>
	<path class="st1" d="M707.48,28.29c16.93-26.7-4.1,77.36-4.1,77.36s-13.67,45.37-22.95,57.14
		c-25.29,32.09-135.68,73.73-169.81,113.81c-22.3,26.19-161.67-81.72-161.67-81.72l31.73-113.11c0,0,7.88,42.52,47.3,51.75
		c82.2,19.26,90.01,46.89,96.48,36.14C551.16,125.32,661.69,100.5,707.48,28.29z"/>
	<g>
		<path class="st0" d="M67.34,504.01l-25.34,62.02c-1.01,2.52-2.84,4.35-5.48,5.48c-2.65,1.13-5.24,1.19-7.75,0.19
			c-2.52-1.01-4.35-2.84-5.48-5.48c-1.13-2.65-1.2-5.23-0.19-7.75l21.55-53.32c-7.82,0.25-15.63,0.38-23.44,0.38
			c-2.78,0-5.17-1-7.18-3.03C12,500.48,11,498.09,11,495.31c0-2.77,1-5.16,3.02-7.18c2.01-2.01,4.41-3.03,7.18-3.03
			c10.33,0,21.05-0.25,32.14-0.76l38.19-94.91c3.02-6.81,7-16.76,11.91-29.87c4.92-13.1,8-21.18,9.26-24.2l7.94-20.8
			c0.76-2.27,1.38-3.78,1.89-4.54c1.51-2.77,3.65-4.41,6.43-4.92c3.78-1,7.05-0.25,9.83,2.27c2.01,1.77,3.53,4.54,4.54,8.32
			c0.5,2.02,0.88,4.41,1.13,7.18c0.25,4.54,0.5,10.34,0.76,17.39v11.34c0,4.04-0.07,7.5-0.19,10.4c-0.13,2.9-0.19,4.6-0.19,5.11
			c0,1.01-0.06,7.5-0.19,19.47c-0.13,11.98-0.13,21.37,0,28.17c0.12,6.81,0.5,16.01,1.13,27.6c0.63,11.6,1.7,22.06,3.21,31.39
			l15.5-3.02c2.77-0.5,5.35,0.06,7.75,1.7c2.39,1.64,3.84,3.85,4.35,6.62c0.5,2.78-0.06,5.36-1.7,7.75
			c-1.64,2.4-3.85,3.85-6.62,4.35l-15.5,2.65c3.27,13.36,7.56,23.82,12.86,31.39c7.56,11.34,17.52,16.26,29.87,14.75
			c2.77-0.25,5.29,0.51,7.56,2.27c2.27,1.77,3.53,4.04,3.78,6.81c0.25,2.78-0.51,5.29-2.27,7.56c-1.77,2.27-4.04,3.53-6.81,3.78
			c-20.42,2.27-36.68-5.54-48.78-23.44c-7.06-10.08-12.48-23.45-16.26-40.08C110.32,500.1,88.52,502.49,67.34,504.01z M75.66,482.83
			c17.39-1.26,35.04-3.27,52.94-6.05c-1.26-9.58-2.27-20.48-3.02-32.71c-0.76-12.22-1.2-21.87-1.32-28.93
			c-0.13-7.05-0.13-16.7,0-28.93c0.12-12.22,0.19-18.59,0.19-19.1v-5.67l-13.99,36.3L75.66,482.83z"/>
		<path class="st0" d="M267,563c-14.08,1.81-29.63,3.03-48.02-3.02c-0.25,10.84-0.38,29.24-0.38,55.21c0,25.96-0.25,46-0.76,60.12
			c0,2.77-1.08,5.11-3.21,7c-2.14,1.89-4.6,2.84-7.37,2.84c-2.78,0-5.1-1.08-7-3.21c-1.89-2.14-2.84-4.6-2.84-7.37
			c0.25-12.61,0.5-37.12,0.76-73.55c0.25-36.43,0.88-64.47,1.89-84.14c0.25-6.3,1.07-16.64,2.46-31.01
			c1.38-14.37,2.2-25.34,2.46-32.9c0-2.77,1.07-5.1,3.21-7c2.14-1.89,4.6-2.84,7.37-2.84c2.77,0,5.1,1.01,7,3.02
			c1.89,2.02,2.81,6.52,2.81,9.04c3.06-5.71,6.58-10.17,9.86-13.2c10.08-9.58,20.54-13.61,31.39-12.1
			c9.83,1.51,17.96,6.75,24.39,15.69c6.43,8.95,10.9,19.35,13.42,31.2c2.52,9.83,3.15,20.67,1.89,32.52
			c-1.26,11.85-4.54,22.19-9.83,31.01c8.07-2.01,14.49-5.8,19.29-11.34c1.26-1.76,2.58-3.78,3.97-6.05
			c1.38-2.27,2.58-4.35,3.59-6.24c1-1.89,4.39-9.24,5.77-13.27c1.38-4.03,4.24-10.25,6.13-16.05c1.89-5.8,3.63-10.27,4.38-13.05
			c1-2.52,1.23-4.58,3.76-5.84c2.52-1.26,5.11-1.45,7.75-0.57c2.65,0.89,4.6,2.59,5.86,5.11c1.26,2.52,1.51,5.17,0.76,7.94
			l-3.78,11.72l-4.54,12.1l-3.78,10.59c-1.51,4.29-2.9,7.69-4.16,10.21c-1.26,2.52-2.78,5.36-4.54,8.51
			c-1.77,3.16-3.66,5.86-5.67,8.13c-6.56,7.82-14.94,13.36-25.15,16.64C295.93,562.12,282.76,560.97,267,563z M219.73,539.17
			c1,0,2.01,0.25,3.02,0.76c25.71,9.08,43.86,6.56,54.45-7.56c4.54-6.05,7.43-13.8,8.7-23.26c1.26-9.45,0.76-18.72-1.51-27.79
			c-2.02-9.32-4.98-16.7-8.89-22.12c-3.91-5.42-7.88-8.38-11.91-8.89c-4.29-0.76-9.08,1.51-14.37,6.81
			c-8.07,7.32-15.07,16.81-23.5,33.44c-1.38,2.64-2.73,5.8-3.97,8.36c-0.76,7.56-1.02,13.41-1.27,18.71L219.73,539.17z"/>
		<path class="st0" d="M360.78,428.38c10.59,2.52,21.05,4.16,31.39,4.92c0,0,1.95-0.04,3.78-0.38c6.05-0.76,10.59,1.01,13.61,5.29
			c1.51,2.02,2.27,4.54,2.27,7.56c0,1.26-0.13,2.9-0.38,4.92c-0.25,2.27-0.89,5.67-1.89,10.21l-3.78,13.99
			c-1.77,6.56-3.02,11.47-3.78,14.75c-3.02,12.35-5.05,22.56-6.05,30.63c-1.51,9.83-1.51,16.89,0,21.18c1,3.28,2.65,5.93,4.92,7.94
			c2.27,2.02,4.79,2.9,7.56,2.65c9.08-0.5,17.64-9.45,25.71-26.85c6.3-13.36,11.34-28.86,15.13-46.51c0.25-2.77,1.57-4.98,3.97-6.62
			c2.39-1.64,4.85-2.14,7.37-1.51c2.52,0.63,4.6,2.14,6.24,4.54c1.64,2.4,2.08,4.86,1.32,7.37c-4.04,19.42-9.45,36.56-16.26,51.43
			c-11.34,24.71-25.59,37.56-42.73,38.57c-7.82,0.5-14.62-1.83-20.42-7c-5.8-5.16-9.77-11.21-11.91-18.15
			c-2.14-6.93-2.33-16.83-0.57-29.68c1-8.82,3.15-19.79,6.43-32.9c1-3.27,2.27-8.19,3.78-14.75l3.4-13.61l0.76-3.02
			c-8.32-0.5-16.39-1.51-24.2-3.03l-2.52,10.38c-0.76,3.28-4.84,15.98-4.84,15.98c-0.91,3.41-1.93,6.5-3.45,10.03
			c-1.01,2.78-3.25,5.03-5.64,6.16c-2.4,1.13-4.86,1.2-7.37,0.19c-2.52-1-4.35-2.77-5.48-5.29c-1.13-2.52-0.47-4.8,0.54-7.32
			c1.26-3.78,2.31-7.5,3.45-10.65c1.13-3.15,3.64-12.53,4.15-15.3l3.03-13.61c0-0.5,0.5-3.91,0.76-4.92
			c0.5-2.77,1.89-4.92,4.16-6.43C355.48,428,358,427.62,360.78,428.38z"/>
		<path class="st0" d="M463.63,524.8c0.76,7.31,2.65,13.23,5.67,17.77c6.3,9.33,17.14,12.23,32.52,8.7
			c12.6-3.02,22.43-11.21,29.49-24.58c2.52-4.79,4.79-9.77,6.81-14.94c2.01-5.16,4.16-11.16,6.43-17.96
			c2.27-6.81,4.28-12.6,6.05-17.39c1-2.52,2.77-4.35,5.29-5.48c2.52-1.13,5.1-1.19,7.75-0.19c2.65,1.01,4.54,2.78,5.67,5.29
			c1.13,2.52,1.19,5.17,0.19,7.94l-5.29,15.88c-2.52,7.06-4.92,13.61-7.19,19.66c-2.27,6.05-4.79,11.72-7.56,17.02
			c-3.24,6.15-4.82,6.65-8.69,11.54c-11.21,14.17-21.75,20-34.42,22.87c-24.46,5.8-42.35,0.12-53.7-17.02
			c-9.08-13.36-11.98-31.01-8.7-52.94c2.77-20.42,9.45-37.56,20.04-51.43c5.8-7.56,12.48-13.17,20.04-16.83
			c7.56-3.65,15.63-4.09,24.2-1.32c14.37,5.05,21.93,15.38,22.69,31.01c0.76,12.1-2.9,24.33-10.97,36.68
			c-8.32,12.86-18.66,21.31-31.01,25.34C480.39,527.2,471.95,527.33,463.63,524.8z M464.01,502.87c6.05,3.53,12.22,4.29,18.53,2.27
			c7.81-2.77,14.62-8.57,20.42-17.39c5.54-8.57,8.07-16.64,7.56-24.2c-0.25-6.55-3.28-10.71-9.08-12.48
			c-6.81-2.52-13.87,1.13-21.18,10.97C471.95,472.87,466.52,486.49,464.01,502.87z"/>
		<path class="st0" d="M607.69,453.33c-1.01,0.51-2.4,1.51-4.16,3.02c-4.79,3.78-10.09,10.46-15.88,20.04
			c-4.79,8.07-9.33,16.39-13.61,24.96c-4.04,8.83-6.56,14.88-7.56,18.15c-0.51,1.26-1.01,3.16-1.51,5.67
			c-1.77,10.59-4.66,20.78-5.67,31.01c-0.1,1.01-0.49,3.47-0.86,4.54c-0.35,1.02-1.41,2.27-2.17,3.03
			c-3.53,3.53-7.44,4.28-11.72,2.27c-2.78-1.26-4.28-3.47-5.37-6.4c-0.2-0.53-0.28-1.59-0.28-2.35c0,0,0-2.54,0.05-3.36
			c0.16-2.28,0.8-5.91,1.81-10.96c1.51-8.57,2.9-15.75,4.16-21.55c3.27-22.18,5.67-44.75,7.19-67.69c0.25-2.77,1.45-5.11,3.59-7
			c2.14-1.89,4.6-2.71,7.37-2.46c2.77,0.25,5.11,1.45,7,3.59c1.89,2.14,2.6,4.06,2.46,7.37c-0.12,2.79-0.38,5.42-0.38,7.94
			c6.3-10.08,12.22-17.52,17.77-22.31c10.84-9.32,20.67-10.71,29.5-4.16c4.54,3.28,7.69,8.45,9.45,15.5
			c1.26,4.79,2.01,10.84,2.27,18.15c0,4.54-0.19,11.98-0.57,22.31C630.19,503,630,509.18,630,511.19
			c-0.25,15.38,0.88,26.35,3.4,32.9c1,3.02,2.33,5.1,3.97,6.24c1.64,1.13,4.09,1.58,7.37,1.32c5.04-0.5,8.82-1.76,11.34-3.78
			c1.76-1.76,4.66-5.8,8.7-12.1c5.54-8.57,10.84-19.16,15.88-31.76l13.85-32.31c1.26-2.52,2.09-4.93,4.3-5.88
			c2.49-1.07,5.1-0.95,7.75,0.19c2.65,1.13,4.47,2.97,5.48,5.48c1,2.52,1,5.17,0,7.94l-4.54,10.21v0.76
			c-0.51,1.77-3.16,8.83-7.94,21.18c-5.55,13.87-11.34,25.71-17.39,35.55c-5.05,7.82-9.33,13.23-12.86,16.26
			c-5.8,4.79-13.49,7.69-23.07,8.7c-8.07,0.76-15-0.89-20.8-4.92c-5.05-3.53-8.83-8.82-11.34-15.88
			c-3.28-8.82-4.79-22.31-4.54-40.46c0.25-2.27,0.5-8.32,0.76-18.15c0.25-9.83,0.38-17.14,0.38-21.93
			c-0.25-5.8-0.76-10.21-1.51-13.23C608.7,455.48,608.2,454.09,607.69,453.33z"/>
		<path class="st0" d="M746.85,441.61c-1.26-14.37-1.64-28.61-1.13-42.73c1.76-36.3,9.32-62.64,22.69-79.03
			c8.82-10.84,18.65-15.88,29.5-15.13c6.05,0.25,11.09,2.62,15.69,6.43c3.88,3.21,7.37,9.33,9.45,16.2c1.76,5.8,2.1,12.9,1.81,22.91
			c-0.07,2.27-0.11,5.21-0.49,9.75s-1.08,10.78-1.67,14.48c-11.34,58.23-24.8,104.56-41.44,138.59l3.03,10.21
			c3.78,10.59,7.69,17.65,11.72,21.18c1,1.01,2.01,1.51,3.03,1.51c1.51,0,3.4-0.88,5.67-2.65c14.62-11.34,27.69-34.21,34.25-70.01
			c0.5-2.77,2.28-4.21,3.1-7.14c0.78-2.79,3.74-2.39,6.52-1.89c2.77,0.51,4.97,1.96,6.62,4.35c1.64,2.4,2.2,4.98,1.7,7.75
			c-7.56,40.84-20.67,68.44-39.33,82.81c-6.3,4.79-12.48,7.18-18.53,7.18c-6.05,0-11.6-2.14-16.64-6.43
			c-5.55-5.04-10.46-12.73-14.75-23.07l-2.65,4.16c-8.07,11.1-18.03,19.04-29.87,23.82c-6.3,3.27-13.42,4.16-21.36,2.65
			c-7.94-1.51-14.69-5.92-20.23-13.23c-8.07-11.09-11.22-26.22-9.45-45.38c1.76-16.89,6.81-32.14,15.13-45.76
			c10.08-15.88,21.93-23.95,35.55-24.2C738.78,438.97,742.81,439.85,746.85,441.61z M759.71,510.81c-1.26-4.79-2.4-9.96-3.4-15.5
			c-2.78-13.61-4.29-20.67-4.54-21.18c-0.25-1-0.38-2.01-0.38-3.02c-5.8-7.81-11.34-11.72-16.64-11.72
			c-6.05,0-12.1,4.92-18.15,14.75c-6.81,11.1-10.84,23.44-12.1,37.06c-1.51,13.61,0.38,23.95,5.67,31.01
			c4.03,5.55,9.83,6.81,17.39,3.78c8.06-3.27,15-8.95,20.8-17.02C752.14,523.67,755.92,517.62,759.71,510.81z M769.16,468.08
			c0.48,2.56,1.16,5.14,1.86,8.3c0.06,0.25,0.8,3.07,1.05,3.32c7.05-26.47,20.07-58.86,24.51-95.53c1.25-10.3,1.46-19.29,1.53-21.31
			c0.25-6.82-0.97-16.17-1.81-19.5c-1.26-4.98-5.36-8.22-8.36-8.22c-4.21,0-8.84,5.44-11.42,10.72c-5.99,12.25-9.39,34.1-10.4,63.6
			C765.38,430.65,766.38,450.19,769.16,468.08z"/>
		<path class="st0" d="M850.84,524.8c0.76,7.31,2.65,13.23,5.67,17.77c6.3,9.33,17.14,12.23,32.52,8.7
			c12.6-3.02,22.43-11.21,29.49-24.58c2.52-4.79,4.72-9.79,6.81-14.94c2.23-5.51,4.52-10.81,7.1-17.51
			c2.65-6.89,4.42-12.78,6.18-17.57c1-2.52,1.97-4.62,4.49-5.75c2.52-1.13,5.1-1.19,7.75-0.19c2.65,1.01,4.54,2.78,5.67,5.29
			c1.13,2.52,1.19,5.17,0.19,7.94l-5.29,15.88c-2.52,7.06-4.92,13.61-7.19,19.66c-2.27,6.05-4.79,11.72-7.56,17.02
			c-9.83,18.66-24.2,30.12-43.11,34.41c-24.46,5.8-42.35,0.12-53.7-17.02c-9.08-13.36-13.37-31.26-8.7-52.94
			c4.39-20.38,9.45-37.56,20.04-51.43c5.8-7.56,12.48-13.17,20.04-16.83c7.56-3.65,15.63-4.09,24.2-1.32
			c14.37,5.05,21.93,15.38,22.69,31.01c0.76,12.1-2.9,24.33-10.97,36.68c-8.32,12.86-18.66,21.31-31.01,25.34
			C867.6,527.2,859.16,527.33,850.84,524.8z M851.21,502.87c6.05,3.53,12.22,4.29,18.53,2.27c7.81-2.77,14.62-8.57,20.42-17.39
			c5.54-8.57,8.07-16.64,7.56-24.2c-0.25-6.55-3.28-10.71-9.08-12.48c-6.81-2.52-13.87,1.13-21.18,10.97
			C859.16,472.87,853.73,486.49,851.21,502.87z"/>
		<path class="st0" d="M961.25,428.38c10.59,2.52,21.05,4.16,31.39,4.92c0,0,1.97-0.14,3.78-0.38c6.05-0.76,10.59,1.01,13.61,5.29
			c1.51,2.02,2.27,4.54,2.27,7.56c0,1.26-0.13,2.9-0.38,4.92c-0.25,2.27-0.89,5.67-1.89,10.21l-3.78,13.99
			c-1.77,6.56-3.02,11.47-3.78,14.75c-3.02,12.35-5.05,22.56-6.05,30.63c-1.51,9.83-1.51,16.89,0,21.18c1,3.28,2.65,5.93,4.92,7.94
			c2.27,2.02,4.79,2.9,7.56,2.65c9.08-0.5,17.64-9.45,25.71-26.85c6.3-13.36,11.34-28.86,15.13-46.51c0.25-2.77,1.57-4.98,3.97-6.62
			c2.39-1.64,4.85-2.14,7.37-1.51c2.52,0.63,4.6,2.14,6.24,4.54c1.64,2.4,2.08,4.86,1.32,7.37c-4.04,19.42-9.45,36.56-16.26,51.43
			c-11.34,24.71-25.59,37.56-42.73,38.57c-7.82,0.5-14.62-1.83-20.42-7c-5.8-5.16-9.77-11.21-11.91-18.15
			c-2.14-6.93-2.33-16.83-0.57-29.68c1-8.82,3.15-19.79,6.43-32.9c1-3.27,2.27-8.19,3.78-14.75l3.4-13.61l0.76-3.02
			c-8.32-0.5-16.39-1.51-24.2-3.03c0,0-9.83,33.15-11.34,36.68c-1.01,2.78-2.71,4.73-5.1,5.86c-2.4,1.13-4.86,1.2-7.37,0.19
			c-2.52-1-4.35-2.77-5.48-5.29c-1.13-2.52-1.2-5.04-0.19-7.56c1.26-3.78,2.56-7.21,3.59-10.4c1.25-3.89,3.76-12.55,4.43-15.29
			c0.81-3.34,2.66-10.14,3.33-13.63c0.09-0.49,0.5-3.91,0.76-4.92c0.5-2.77,1.89-4.92,4.16-6.43
			C955.96,428,958.47,427.62,961.25,428.38z"/>
	</g>
	<path class="st2" d="M707.48,112.56c6.62,8.65,3.46,23.09-1.38,32.33c-2.87,5.48-9.53,16.26-29.18,35.92
		c-2.18,1.75-3.91,3.23-7.42,5.94c4.67,1.6,6.72,2.37,9.16,3.26c3.58,1.32,7.24,2.43,10.75,3.9c8.36,3.5,16.66,7.13,24.95,10.77
		c6.24,2.74,9.23,7.5,10.07,14.36c0.78,6.36-7.11,34.06-8.37,42.34c-1.5,9.89-3.21,19.75-4.61,29.66
		c-0.77,5.41-1.05,10.89-1.64,16.32c-0.48,4.49-1,8.99-1.66,13.46c-1.08,7.3-2.26,14.58-3.47,21.86
		c-1.19,7.19-2.72,11.59-13.18,7.34c-7.5-3.05-60.5-23.14-82.35-29.83c-10.76-3.29-32.6-9.86-46.39-10.56
		c-8.77-0.39-25.42-0.85-38.2,3.24c-11.15,3.57-16.83,3.34-26.61-3.83c-15.61,20.22-46.46,18.97-60.25,21.48
		c-6.02,1.39-13.5,3.09-19.43,4.83c-27.35,8.03-48.52,16.81-54.33,19.72c-8.3,4.15-16.51,8.37-23.94,13.98
		c-3.8,2.87-7.67,5.63-12,8.81c-1.31,0-3.19,0.04-5.07-0.01c-3.03-0.08-5.54-1.28-7.49-3.62c-1.07-1.28-2.15-2.55-3.25-3.81
		c-2.88-3.32-3.91-7.22-2.56-11.32c1.63-4.96,3.68-9.79,5.72-14.6c4.29-10.1,9.42-19.78,15.13-29.14
		c9.69-15.86,19.37-31.76,32.36-45.26c7.1-7.38,14.31-14.65,21.46-21.98c1.32-1.35,2.59-2.75,3.9-4.15
		c-0.44-2.66-2.59-3.52-4.28-4.64c-6.97-4.62-13.41-9.88-19.8-15.26c-7.28-6.13-12.32-11.77-16.73-20
		c-2.69-5.03-4.77-7.83-6.24-17.17c-2-12.65,0.29-31.58,5.61-45.67c2.94-7.79,4.64-12.13,8.77-21.78c2.44-5.62,5.08-12.36,5.2-12.56
		c4.62-10.6,5.45-15.2,8.77-25.12c0.68-2.02,1.88-7.03,2.53-9.07c1.34-4.19,2.61-10.39,6.54-8.62c4.91,3.12,6.26,9.54,10.41,17.99
		c3.58,7.3,5.47,9.87,10.26,18.21c13.16,17.17,21.17,20.46,35.79,25.99c14.01,5.3,15.62,5.62,30.14,10.35
		c0.9,0.29,14.98,3.77,19.4,5.05c10.34,2.99,17.04,4.65,25.59,11.09c3.02,2.27,6.23,4.3,9.18,6.32c0.8-0.47,1.34-0.61,1.59-0.96
		c7.39-10.54,17.27-18.44,27.74-25.53c13.43-9.1,27.72-16.75,42.46-23.57c3.02-1.4,5.8-3.29,8.76-4.82
		c14.67-7.54,35.56-16.05,70.05-44.59c24.14-19.98,30.29-39.09,33.32-42.77c1.46-1.77,2.57-4.03,4.59-4.8
		c2.28-0.87,4.83,1.27,6.64,2.98c7.78,8.91,9.59,27.49,9.56,43.84c-0.02,11.3-2.38,17.51-4.5,25.57
		c-1.98,7.56-9.36,21.75-9.88,22.79C709.06,108.51,708,111.12,707.48,112.56z M513.73,290.33c9.81-2.38,33.16-3.3,50.69-2.08
		c11.38,0.79,25.2,4.14,40.73,8.03c19,4.76,61.02,20.15,67.57,22.3c3.62,1.23,10.02,3.98,11.51,4.16c0.79-4.16,1.51-9.49,1.93-13.23
		c0.98-8.76,6.09-43.69,12.64-71.65c2.59-11.08,3.27-13.23,0.59-15.27c-1.65-2.17-9.78-6.94-12.04-7.69
		c-3.16-1.06-27.87-12.75-38.24-12.49c-5.73,0.42-10.41,2.51-13.21,4.07c-5.81,3.24-11.76,6.24-17.69,9.26
		c-8.92,4.54-17.89,8.97-26.8,13.53c-3.18,1.63-6.27,3.44-9.32,5.29c-0.68,0.41-4.1,1.93-4.88,2.99c6.54,0.59,8.77,1.89,14.86,3.72
		c2.01,0.6,28.01,12.81,27.5,12.93c-1.6,0.36-16.78-4.1-25.42-5.8c-8.7-1.71-11.07-1.76-19.77-3.12
		c-13.26-2.07-18.73,0.89-43.41,21.95C526.67,270.92,516.47,284.04,513.73,290.33z M481.16,267.25c0.47-1.14,0.87-1.77,0.98-2.44
		c1.5-9.42,2.96-18.84,4.41-28.27c0.11-0.7,0.12-1.43,0.04-2.13c-0.17-1.47,0.02-0.8-0.66-2.86c-2.19-3.22-10.01-7.96-11.26-8.53
		c-4.76-2.18-9.52-4.4-14.44-6.19c-8.06-2.94-16.22-5.58-24.36-8.31c-11.73-4.68-22.94-9.85-32.85-17.96
		c-2.64-2.28-5.92-6.02-6.9-7.4c1.95,1.23,6.33,4.15,7.53,4.65c3.34,1.75,4.61,2.19,9.14,4.2c2.38,1.04,3.44,1.28,4.79,1.75
		c9.45,3.29,18.26,5.72,27.7,9.03c4.49,1.58,9.03,3.07,13.39,4.97c6.33,2.77,13.39,6.97,19.58,10.65c5.41,3.4,7.8,5.46,9.87,6.99
		c5.7-18.1,14.79-34.84,22.49-52.11c-2.99-3.18-9.18-6.78-14.85-9.7c-23.67-12.17-66.39-15.59-87.13-30.08
		c-5.44-3.47-13.27-10.37-17.17-16.05c-0.88-1.57-7.02-10.93-9.59-19.18c-1.03,5.43-5.11,18.22-6.47,23.86
		c-4.83,15.76-4.87,16.76-9.36,33.89c-2.97,12.97-3.19,22.91-1.19,28.24c3.87,10.29,10.45,14.7,17.46,22.82
		c5.53,6.41,23.01,15,30.47,18.58c15.75,7.55,19.34,9.73,34.04,19.03c8.84,5.59,21.62,13.89,30.14,19.98
		C478.26,265.6,479.67,266.34,481.16,267.25z M706.53,47.89c-1.84,1.43-6.96,7.66-13.82,15.61c-10.65,12.33-25.85,25.25-61.99,45.04
		c-42.54,23.3-87.25,32.34-106.59,81.16c-0.42,0.61-7.88,19.15-8.01,20.07c0.99-0.04,16.71-13.47,17.03-13.68
		c7.96-5.93,14.34-10.76,23.44-16.86c7.99-5.19,15.74-10.39,24.66-16.03c8.02-4.5,14.82-7.95,23.99-12.95
		c22.03-10.15,32.5-11.15,32.17-10.65c-0.47,0.71-30.28,16.22-39.77,21.67c-11.76,6.76-23.39,13.81-34.02,22.37
		c-5.16,4.16-10.16,8.19-15.11,12.13c-0.92,0.64-1.88,1.5-2.58,2.15c-5.05,4.71-10.04,9.48-15.19,14.07
		c-3.91,3.48-7.9,6.78-11.16,11c-3.17,4.1-5.78,6.93-8.84,12.72c-0.16,0.39-0.38,0.85-0.57,1.29c-2.55,5.98-3.83,12.19-3.56,18.68
		c-0.04,2.82-1.13,11.47,0.1,9.99c30.17-27.62,67.51-46.64,74.74-50.76c7.66-4.36,41.5-21.77,49.05-26.31
		c7.14-4.3,29.84-19.66,36.57-26.98c4.33-4.71,11.04-11.37,16.05-18.95c4.21-6.37,3.76-12.62,3.34-14.94
		c-0.58-3.26-5.24-9.46-5.57-12.77c-0.3-2.97,0.53-5.47,2.1-8.08c4.44-7.34,10.19-11.92,14.17-19.51
		c3.54-6.76,7.86-16.31,9.36-23.86C706.78,62.24,708.54,50.79,706.53,47.89z M479.17,295.16c-0.73-4.33-2.61-7.06-5.12-9.74
		c-3.94-4.2-9.35-4.68-16.02-4.48c-9.18,0.28-22.89,4.04-24.28,3.61c1.32-2.02,7.78-7.06,11.42-8.34c6.2-2.18,11.04-2.92,12.91-3.69
		c-1.84-0.61-8.32-4.24-9.28-4.84c-9.77-6.09-20.62-9.89-31.05-14.6c-0.56-0.22-0.69-0.27-1.25-0.45c-1.63-0.51-4.95-2.01-7.18,0.26
		c-8.47,7.69-17.99,17.47-24.42,25.75c-13.16,16.95-33.74,46.3-40.92,61.61c6.84-4.31,27.96-13.28,35.53-16.35
		c11.39-4.63,53.5-15.88,61.71-17.2c10.61-1.7,21.17-4.08,29.75-7.27C473.82,298.4,476.84,297.55,479.17,295.16z"/>
</g>
</svg>
